<?xml version="1.0" encoding="UTF-8" standalone="no"?>
<svg
   xmlns:dc="http://purl.org/dc/elements/1.1/"
   xmlns:cc="http://creativecommons.org/ns#"
   xmlns:rdf="http://www.w3.org/1999/02/22-rdf-syntax-ns#"
   xmlns:svg="http://www.w3.org/2000/svg"
   xmlns="http://www.w3.org/2000/svg"
   xmlns:sodipodi="http://sodipodi.sourceforge.net/DTD/sodipodi-0.dtd"
   xmlns:inkscape="http://www.inkscape.org/namespaces/inkscape"
   height="64px"
   id="ICONS"
   style="enable-background:new 0 0 64 64;"
   version="1.1"
   viewBox="0 0 64 64"
   width="64px"
   xml:space="preserve"
   sodipodi:docname="logo.svg"
   inkscape:version="0.92.1 r15371"><metadata
     id="metadata61"><rdf:RDF><cc:Work
         rdf:about=""><dc:format>image/svg+xml</dc:format><dc:type
           rdf:resource="http://purl.org/dc/dcmitype/StillImage" /><dc:title></dc:title></cc:Work></rdf:RDF></metadata><defs
     id="defs59" /><sodipodi:namedview
     pagecolor="#ffffff"
     bordercolor="#666666"
     borderopacity="1"
     objecttolerance="10"
     gridtolerance="10"
     guidetolerance="10"
     inkscape:pageopacity="0"
     inkscape:pageshadow="2"
     inkscape:window-width="1366"
     inkscape:window-height="705"
     id="namedview57"
     showgrid="false"
     inkscape:zoom="3.6875"
     inkscape:cx="22.508475"
     inkscape:cy="28.926729"
     inkscape:window-x="-8"
     inkscape:window-y="-8"
     inkscape:window-maximized="1"
     inkscape:current-layer="g52" /><g
     id="g54"><circle
       cx="11"
       cy="22.635"
       r="1"
       style="fill:#57b6cd;fill-opacity:1"
       id="circle2" /><circle
       cx="16"
       cy="29.635"
       r="1"
       style="fill:#57b6cd;fill-opacity:1"
       id="circle4" /><circle
       cx="29"
       cy="14.635"
       r="1"
       style="fill:#57b6cd;fill-opacity:1"
       id="circle6" /><circle
       cx="52"
       cy="39.635"
       r="1"
       style="fill:#57b6cd;fill-opacity:1"
       id="circle8" /><path
       d="   M5,54.461l12.442-7.438c0.683-0.408,1.488-0.562,2.273-0.435l18.628,3.031c1.237,0.202,2.505,0.107,3.699-0.275l16.958-5.431   L47.557,55c-1.296,1.255-3.104,1.832-4.888,1.558l-19.621-3.012c-1.06-0.163-2.135-0.207-3.204-0.131L5,54.461z"
       style="fill:none;stroke:#c79e57;stroke-width:1.5;stroke-linecap:round;stroke-linejoin:round;stroke-miterlimit:10;stroke-opacity:1;opacity:1;stroke-dasharray:none"
       id="path10" /><path
       d="   M19.716,46.588l2.167-21.074c0.081-0.784,0.614-1.447,1.362-1.694l15.226-5.035c0.616-0.204,1.095-0.694,1.285-1.314l2.392-7.827   c0.241-0.789,0.941-1.349,1.764-1.41l11.396-0.852c0.576-0.043,1.143,0.165,1.554,0.571c0.411,0.406,0.627,0.97,0.591,1.546   l-0.562,9.102l-2.109-6.188l-5.906,0.422l-0.805,9.47c-0.072,0.845-0.67,1.554-1.491,1.767l-2.767,0.717l3.331,22.922"
       style="fill:none;stroke:#c79e57;stroke-width:1.5;stroke-linecap:round;stroke-linejoin:round;stroke-miterlimit:10;stroke-opacity:1;opacity:1;fill-opacity:1;stroke-dasharray:none"
       id="path12" /><path
       d="   M37,44c0,1.104-0.896,2-2,2h-3c-1.104,0-2-0.896-2-2v-4c0-1.104,0.896-2,2-2h3c1.104,0,2,0.896,2,2V44z"
       style="fill:none;stroke:#c79e57;stroke-width:1.6;stroke-linecap:round;stroke-linejoin:round;stroke-miterlimit:10;stroke-opacity:1;stroke-dasharray:none"
       id="path14" /><line
       style="fill:none;stroke:#c79e57;stroke-width:1.5;stroke-linecap:round;stroke-linejoin:round;stroke-miterlimit:10;stroke-opacity:1;stroke-dasharray:none"
       x1="21"
       x2="30"
       y1="40"
       y2="40"
       id="line16" /><line
       style="fill:none;stroke:#c79e57;stroke-width:1.5;stroke-linecap:round;stroke-linejoin:round;stroke-miterlimit:10;stroke-opacity:1;stroke-dasharray:none"
       x1="37"
       x2="45"
       y1="40"
       y2="40"
       id="line18" /><line
       style="fill:none;stroke:#c79e57;stroke-width:1.5;stroke-linecap:round;stroke-linejoin:round;stroke-miterlimit:10;stroke-opacity:1;stroke-dasharray:none"
       x1="30"
       x2="20"
       y1="44"
       y2="44"
       id="line20" /><line
       style="fill:none;stroke:#c79e57;stroke-width:1.5;stroke-linecap:round;stroke-linejoin:round;stroke-miterlimit:10;stroke-opacity:1;stroke-dasharray:none"
       x1="37"
       x2="46"
       y1="44"
       y2="44"
       id="line22" /><g
       id="g32"><line
         style="fill:none;stroke:#57b6cd;stroke-width:2;stroke-linecap:round;stroke-linejoin:round;stroke-miterlimit:10;stroke-opacity:1"
         x1="11"
         x2="11"
         y1="35"
         y2="36"
         id="line24" /><line
         style="fill:none;stroke:#57b6cd;stroke-width:2;stroke-linecap:round;stroke-linejoin:round;stroke-miterlimit:10;stroke-opacity:1"
         x1="11"
         x2="11"
         y1="40"
         y2="41"
         id="line26" /><line
         style="fill:none;stroke:#57b6cd;stroke-width:2;stroke-linecap:round;stroke-linejoin:round;stroke-miterlimit:10;stroke-opacity:1"
         x1="14"
         x2="13"
         y1="38"
         y2="38"
         id="line28" /><line
         style="fill:none;stroke:#57b6cd;stroke-width:2;stroke-linecap:round;stroke-linejoin:round;stroke-miterlimit:10;stroke-opacity:1"
         x1="9"
         x2="8"
         y1="38"
         y2="38"
         id="line30" /></g><g
       id="g42"><line
         style="fill:none;stroke:#57b6cd;stroke-width:2;stroke-linecap:round;stroke-linejoin:round;stroke-miterlimit:10;stroke-opacity:1"
         x1="20"
         x2="20"
         y1="13"
         y2="14"
         id="line34" /><line
         style="fill:none;stroke:#57b6cd;stroke-width:2;stroke-linecap:round;stroke-linejoin:round;stroke-miterlimit:10;stroke-opacity:1"
         x1="20"
         x2="20"
         y1="18"
         y2="19"
         id="line36" /><line
         style="fill:none;stroke:#57b6cd;stroke-width:2;stroke-linecap:round;stroke-linejoin:round;stroke-miterlimit:10;stroke-opacity:1"
         x1="23"
         x2="22"
         y1="16"
         y2="16"
         id="line38" /><line
         style="fill:none;stroke:#57b6cd;stroke-width:2;stroke-linecap:round;stroke-linejoin:round;stroke-miterlimit:10;stroke-opacity:1"
         x1="18"
         x2="17"
         y1="16"
         y2="16"
         id="line40" /></g><g
       id="g52"><line
         style="fill:none;stroke:#57b6cd;stroke-width:2;stroke-linecap:round;stroke-linejoin:round;stroke-miterlimit:10;stroke-opacity:1"
         x1="53"
         x2="53"
         y1="26"
         y2="27"
         id="line44" /><line
         style="fill:none;stroke:#57b6cd;stroke-width:2;stroke-linecap:round;stroke-linejoin:round;stroke-miterlimit:10;stroke-opacity:1"
         x1="53"
         x2="53"
         y1="31"
         y2="32"
         id="line46" /><line
         style="fill:none;stroke:#57b6cd;stroke-width:2;stroke-linecap:round;stroke-linejoin:round;stroke-miterlimit:10;stroke-opacity:1"
         x1="56"
         x2="55"
         y1="29"
         y2="29"
         id="line48" /><line
         style="fill:none;stroke:#57b6cd;stroke-width:2;stroke-linecap:round;stroke-linejoin:round;stroke-miterlimit:10;stroke-opacity:1"
         x1="51"
         x2="50"
         y1="29"
         y2="29"
         id="line50" /></g></g></svg>