<?xml version="1.0" encoding="UTF-8" standalone="no"?>
<svg
   xmlns:dc="http://purl.org/dc/elements/1.1/"
   xmlns:cc="http://creativecommons.org/ns#"
   xmlns:rdf="http://www.w3.org/1999/02/22-rdf-syntax-ns#"
   xmlns:svg="http://www.w3.org/2000/svg"
   xmlns="http://www.w3.org/2000/svg"
   xmlns:sodipodi="http://sodipodi.sourceforge.net/DTD/sodipodi-0.dtd"
   xmlns:inkscape="http://www.inkscape.org/namespaces/inkscape"
   xml:space="preserve"
   width="64px"
   viewBox="0 0 64 64"
   version="1.1"
   style="enable-background:new 0 0 64 64;"
   id="ICONS"
   height="64px"
   sodipodi:docname="logo1.svg"
   inkscape:export-filename="C:\Users\user\Desktop\PROJECTS\lolesports_enhancer\src\img\logo_96.png"
   inkscape:export-xdpi="160.10799"
   inkscape:export-ydpi="160.10799"
   inkscape:version="0.92.1 r15371"><sodipodi:namedview
     pagecolor="#ffffff"
     bordercolor="#666666"
     borderopacity="1"
     objecttolerance="10"
     gridtolerance="10"
     guidetolerance="10"
     inkscape:pageopacity="0"
     inkscape:pageshadow="2"
     inkscape:window-width="1366"
     inkscape:window-height="705"
     id="namedview32"
     showgrid="false"
     inkscape:zoom="5.2149125"
     inkscape:cx="6.286272"
     inkscape:cy="31.173476"
     inkscape:window-x="-8"
     inkscape:window-y="-8"
     inkscape:window-maximized="1"
     inkscape:current-layer="g54" /><metadata
     id="metadata61"><rdf:RDF><cc:Work
         rdf:about=""><dc:format>image/svg+xml</dc:format><dc:type
           rdf:resource="http://purl.org/dc/dcmitype/StillImage" /><dc:title></dc:title></cc:Work></rdf:RDF></metadata><defs
     id="defs59" /><g
     id="g54"><circle
       id="circle2"
       style="fill:#2cff00;fill-opacity:1;stroke-width:1.14075077"
       r="1.1407508"
       cy="18.717127"
       cx="8.5170937" /><circle
       id="circle4"
       style="fill:#2cff00;fill-opacity:1;stroke-width:1.14075077"
       r="1.1407508"
       cy="26.702381"
       cx="14.220847" /><circle
       id="circle6"
       style="fill:#2cff00;fill-opacity:1;stroke-width:1.14075077"
       r="1.1407508"
       cy="9.5911303"
       cx="29.050591" /><circle
       id="circle8"
       style="fill:#2cff00;fill-opacity:1;stroke-width:1.14075077"
       r="1.1407508"
       cy="38.109909"
       cx="55.287868" /><path
       id="path10"
       style="opacity:1;fill:none;fill-opacity:1;stroke:#8f00ff;stroke-width:2;stroke-linecap:round;stroke-linejoin:round;stroke-miterlimit:10;stroke-dasharray:none;stroke-opacity:1"
       d="M 1.8456265,55.803914 15.882477,47.412501 c 0.770554,-0.460292 1.678717,-0.634058 2.564353,-0.490766 l 21.015777,3.419516 c 1.395571,0.227889 2.826112,0.120708 4.173149,-0.310249 l 19.131727,-6.127158 -12.90979,12.50815 c -1.462119,1.415866 -3.50188,2.066837 -5.514555,1.757711 L 22.207056,54.77162 c -1.195859,-0.183894 -2.408653,-0.233535 -3.614707,-0.147784 z"
       inkscape:connector-curvature="0" /><path
       id="path12"
       style="opacity:1;fill:none;fill-opacity:1;stroke:#8f00ff;stroke-width:2;stroke-linecap:round;stroke-linejoin:round;stroke-miterlimit:10;stroke-dasharray:none;stroke-opacity:1"
       d="m 18.447959,46.921735 2.444767,-23.77531 c 0.09146,-0.884502 0.692701,-1.632492 1.536578,-1.911149 l 17.177729,-5.680412 c 0.694953,-0.230142 1.23536,-0.782936 1.449695,-1.482419 L 43.755357,5.2421618 C 44.027234,4.3520259 44.816956,3.7202442 45.745448,3.6514244 L 58.602227,2.6902131 c 0.649834,-0.048506 1.289502,0.1861503 1.753194,0.6441922 0.463675,0.458042 0.707378,1.0943369 0.666753,1.7441699 L 60.388137,15.347285 58.008791,8.3660992 51.345757,8.8421925 50.437562,19.526072 c -0.08122,0.953317 -0.75586,1.753201 -1.682098,1.993509 l -3.121686,0.80889 3.757971,25.860222"
       inkscape:connector-curvature="0" /><path
       id="path14"
       style="fill:none;stroke:#8f00ff;stroke-width:1.5;stroke-linecap:round;stroke-linejoin:round;stroke-miterlimit:10;stroke-dasharray:none;stroke-opacity:1"
       d="m 37.947458,44.001993 c 0,1.245519 -1.010855,2.256381 -2.256355,2.256381 H 32.30655 c -1.245516,0 -2.256358,-1.010862 -2.256358,-2.256381 v -4.512729 c 0,-1.2455 1.010842,-2.256363 2.256358,-2.256363 h 3.384553 c 1.2455,0 2.256355,1.010863 2.256355,2.256363 z"
       inkscape:connector-curvature="0" /><line
       id="line16"
       y2="39.489262"
       y1="39.489262"
       x2="30.0502"
       x1="19.896544"
       style="fill:none;stroke:#8f00ff;stroke-width:1.5;stroke-linecap:round;stroke-linejoin:round;stroke-miterlimit:10;stroke-dasharray:none;stroke-opacity:1" /><line
       id="line18"
       y2="39.489262"
       y1="39.489262"
       x2="46.972954"
       x1="37.947441"
       style="fill:none;fill-opacity:1;stroke:#8f00ff;stroke-width:1.5;stroke-linecap:round;stroke-linejoin:round;stroke-miterlimit:10;stroke-dasharray:none;stroke-opacity:1" /><line
       id="line20"
       y2="44.002014"
       y1="44.002014"
       x2="18.768339"
       x1="30.0502"
       style="fill:none;stroke:#8f00ff;stroke-width:1.5;stroke-linecap:round;stroke-linejoin:round;stroke-miterlimit:10;stroke-dasharray:none;stroke-opacity:1" /><line
       id="line22"
       y2="44.002014"
       y1="44.002014"
       x2="48.101147"
       x1="37.947441"
       style="fill:none;stroke:#8f00ff;stroke-width:1.5;stroke-linecap:round;stroke-linejoin:round;stroke-miterlimit:10;stroke-dasharray:none;stroke-opacity:1" /><g
       id="g32"
       transform="matrix(1.1407502,0,0,1.1407502,-4.0311663,-7.1037592)"><line
         id="line24"
         y2="36"
         y1="35"
         x2="11"
         x1="11"
         style="fill:none;stroke:#2cff00;stroke-width:2;stroke-linecap:round;stroke-linejoin:round;stroke-miterlimit:10;stroke-opacity:1" /><line
         id="line26"
         y2="41"
         y1="40"
         x2="11"
         x1="11"
         style="fill:none;stroke:#2cff00;stroke-width:2;stroke-linecap:round;stroke-linejoin:round;stroke-miterlimit:10;stroke-opacity:1" /><line
         id="line28"
         y2="38"
         y1="38"
         x2="13"
         x1="14"
         style="fill:none;stroke:#2cff00;stroke-width:2;stroke-linecap:round;stroke-linejoin:round;stroke-miterlimit:10;stroke-opacity:1" /><line
         id="line30"
         y2="38"
         y1="38"
         x2="8"
         x1="9"
         style="fill:none;stroke:#2cff00;stroke-width:2;stroke-linecap:round;stroke-linejoin:round;stroke-miterlimit:10;stroke-opacity:1" /></g><g
       id="g42"
       transform="matrix(1.1407502,0,0,1.1407502,-4.0311663,-7.1037592)"><line
         id="line34"
         y2="14"
         y1="13"
         x2="20"
         x1="20"
         style="fill:none;stroke:#2cff00;stroke-width:2;stroke-linecap:round;stroke-linejoin:round;stroke-miterlimit:10;stroke-opacity:1" /><line
         id="line36"
         y2="19"
         y1="18"
         x2="20"
         x1="20"
         style="fill:none;stroke:#2cff00;stroke-width:2;stroke-linecap:round;stroke-linejoin:round;stroke-miterlimit:10;stroke-opacity:1" /><line
         id="line38"
         y2="16"
         y1="16"
         x2="22"
         x1="23"
         style="fill:none;stroke:#2cff00;stroke-width:2;stroke-linecap:round;stroke-linejoin:round;stroke-miterlimit:10;stroke-opacity:1" /><line
         id="line40"
         y2="16"
         y1="16"
         x2="17"
         x1="18"
         style="fill:none;stroke:#2cff00;stroke-width:2;stroke-linecap:round;stroke-linejoin:round;stroke-miterlimit:10;stroke-opacity:1" /></g><g
       id="g52"
       transform="matrix(1.1407502,0,0,1.1407502,-4.0311663,-7.1037592)"><line
         id="line44"
         y2="27"
         y1="26"
         x2="53"
         x1="53"
         style="fill:none;stroke:#2cff00;stroke-width:2;stroke-linecap:round;stroke-linejoin:round;stroke-miterlimit:10;stroke-opacity:1" /><line
         id="line46"
         y2="32"
         y1="31"
         x2="53"
         x1="53"
         style="fill:none;stroke:#2cff00;stroke-width:2;stroke-linecap:round;stroke-linejoin:round;stroke-miterlimit:10;stroke-opacity:1" /><line
         id="line48"
         y2="29"
         y1="29"
         x2="55"
         x1="56"
         style="fill:none;stroke:#2cff00;stroke-width:2;stroke-linecap:round;stroke-linejoin:round;stroke-miterlimit:10;stroke-opacity:1" /><line
         id="line50"
         y2="29"
         y1="29"
         x2="50"
         x1="51"
         style="fill:none;stroke:#2cff00;stroke-width:2;stroke-linecap:round;stroke-linejoin:round;stroke-miterlimit:10;stroke-opacity:1" /></g></g></svg>